<?xml version="1.0" encoding="UTF-8"?>
<!DOCTYPE svg PUBLIC "-//W3C//DTD SVG 1.1//EN" "http://www.w3.org/Graphics/SVG/1.1/DTD/svg11.dtd">
<!-- Creator: CorelDRAW -->
<svg xmlns="http://www.w3.org/2000/svg" xml:space="preserve" width="500px" height="82px" style="shape-rendering:geometricPrecision; text-rendering:geometricPrecision; image-rendering:optimizeQuality; fill-rule:evenodd; clip-rule:evenodd"
viewBox="0 0 130.447 21.3481"
 xmlns:xlink="http://www.w3.org/1999/xlink">
 <defs>
  <style type="text/css">
   <![CDATA[
    .fil1 {fill:#40C7FF}
    .fil3 {fill:#F75226}
    .fil2 {fill:#FF9400}
    .fil4 {fill:#FFB005}
    .fil0 {fill:white}
   ]]>
  </style>
 </defs>
 <g id="Layer_x0020_1">
  <metadata id="CorelCorpID_0Corel-Layer"/>
  <g id="_161226008">
   <path id="_161212400" class="fil0" d="M45.1751 4.93995l0.373872 -0.0720618c1.33191,-0.256875 2.64494,-0.415505 4.0048,-0.415505 3.79333,-0.000117941 6.99672,1.19097 8.55766,4.0094 0.915574,-3.49659 4.81776,-4.1251 8.40328,-4.1251 1.36056,-0.000117941 2.71736,0.0700568 4.07025,0.215596l1.05321 0.113459 0 7.08706 -1.17941 0c-0.079728,0 -0.166532,-0.00459969 -0.257229,-0.01203 1.11772,0.762015 1.76156,1.93317 1.76156,3.47265 0.000117941,1.86158 -0.69243,3.45248 -2.33782,4.41004 -1.15853,0.674149 -2.47723,0.867926 -3.78826,1.00733 -0.463389,0.0566116 -0.943526,0.053781 -1.40998,0.053781 -1.71462,-0.000117941 -3.49376,-0.112633 -5.20496,-0.259824l-1.07833 -0.0927014 0 -3.43538c-1.62617,2.75746 -5.04928,3.7879 -8.6598,3.7879 -1.33226,-0.000117941 -2.54787,-0.136693 -3.85006,-0.347807l-1.0873 0 0 -3.3573c-1.14178,2.17424 -3.14218,3.65899 -6.38602,3.65899 -6.49264,-0.000117941 -8.32485,-5.91107 -8.32485,-11.2945 0,-1.14285 0.0642777,-2.41826 0.247086,-3.55167l0.159928 -0.991646 7.6395 -0.000353822 -0.228805 1.3733c-0.200263,1.20677 -0.308769,2.5553 -0.308769,3.77363 0,0.690071 0.0316081,1.46129 0.193187,2.13378 0.0360899,0.150374 0.190356,0.683349 0.338018,0.767912 0.00825585,0.00235882 0.0213473,0.00176911 0.0296031,0.00176911 0.0102608,0 0.0311364,-0.000117941 0.0412793,-0.00353822 0.131386,-0.0730053 0.275746,-0.551255 0.308651,-0.683113 0.157333,-0.629686 0.187172,-1.36104 0.187172,-2.00841 0,-1.37873 -0.180685,-2.6427 -0.360781,-3.99689l-0.158748 -1.19427 1.19733 -0.133391c0.0695851,-0.00766615 0.13917,-0.0154502 0.208637,-0.0232343l0.0213473 -0.00235882 5.69725 -0.425648 0.127494 0.560101zm13.9296 8.69554l0.305467 0.0490634c-0.102137,-0.0908144 -0.199202,-0.185167 -0.291196,-0.283176 -0.00389205,0.0787844 -0.00860968,0.156743 -0.0142708,0.234112zm29.9909 6.22645l0 1.48617 -6.85802 0 -0.0489454 -1.08293c-4.2737,-0.420695 -7.74883,-2.53325 -7.74883,-7.54278 0,-5.94469 4.22877,-8.25916 9.49989,-8.25916 1.37814,-0.000235882 2.69164,0.169245 4.0436,0.408311l0.974073 0.172194 0.000117941 7.04342 -1.42413 -0.302636c-0.909913,-0.19189 -1.97975,-0.296739 -2.90417,-0.296739 -0.10367,0 -0.20734,0.00153323 -0.310892,0.00471763 -0.559747,0.0174552 -1.70389,0.115818 -2.0997,0.576141 -0.103434,0.120418 -0.142355,0.26631 -0.152733,0.419044l0.667899 -0.139052c0.719439,-0.149785 1.48405,-0.185285 2.21752,-0.185285 0.196371,0 0.392625,0.00294852 0.588878,0.00813791 0.578735,0.0152144 1.15818,0.047884 1.7355,0.0914041 0.18729,0.0141529 0.374698,0.0293673 0.56187,0.0465866 0.445934,0.0411613 0.965345,0.0941167 1.17257,0.57048l2.67277 -8.13143 8.5796 0 1.89094 6.83266 0 -6.41916 7.45103 -0.468461 0.907672 2.77385 0.670375 -2.71889 7.53807 0 0 0.0202858 11.1704 0 0 5.80516 -0.695969 0 -0.15179 3.82529 1.02467 0 0.378944 5.39827 -11.7263 0 0 0.0643957 -20.9616 0 -0.329998 -1.49867 -2.77751 0 -0.370688 1.49867 -5.18515 0zm-37.2439 -7.49089c-0.0281878,-0.531323 -0.209699,-0.772394 -0.654571,-0.864978l0 1.98282c0.043756,-0.0166296 0.0862147,-0.0347925 0.127258,-0.0548425 0.369391,-0.180214 0.48568,-0.461502 0.508561,-0.863326l0.00141529 -0.0242958 0.0173373 -0.175378z"/>
  </g>
  <path class="fil1" d="M36.49 5.97983c0,0 -0.324809,1.94909 -0.324809,3.96741 0,2.0412 0.324809,4.08287 1.74022,4.08287 1.3917,0 1.71651,-1.90227 1.71651,-3.87447 0,-1.87891 -0.324809,-3.80453 -0.371042,-4.15234 0,0 0,0 0.208637,-0.0232343l4.66338 -0.348397c0,0 0.533328,2.34337 0.533328,5.104 0,3.92094 -1.09036,8.72337 -6.49571,8.72337 -6.12478,-0.000117941 -7.14544,-6.12455 -7.14544,-10.1151 0,-1.92574 0.23199,-3.36391 0.23199,-3.36391l5.24294 -0.000235882zm87.0853 4.9988l4.43009 -0.171486 -0.129027 3.25163 -4.30106 0 0 1.5199 5.39296 0 0.213355 3.03945 -10.2289 0 -0.449236 -12.6699 10.208 0 0 3.44635 -5.1362 0 0 1.58406zm-20.2425 -4.70902l5.43459 -0.341674 1.90404 5.81908 1.43499 -5.81908 5.43471 0 0 12.7546 -3.87235 0 0.214652 -4.85963 -0.535451 0 -1.4134 4.85963 -2.9313 0 -1.30596 -4.85963 -0.363611 0 0 4.85963 -4.0009 0 0 -12.4129zm-6.08633 7.08305l-0.790911 -4.15152 -0.599965 0 -0.962751 4.15152 2.35363 0zm-8.90217 5.32986l4.19232 -12.7546 6.82853 0 3.52985 12.7546 -4.18808 0 -0.329998 -1.49867 -4.64875 0 -0.370688 1.49867 -5.01319 0zm-0.428125 -5.17925l0 6.66542 -4.55133 0 -0.045761 -1.01134c-3.44764,-0.114049 -7.69988,-1.26362 -7.69988,-6.43497 0,-5.93112 4.68909,-7.07975 8.3206,-7.07975 1.63183,-0.000235882 3.05644,0.252039 3.83815,0.390266l0.000117941 4.59792c0,0 -1.51743,-0.32245 -3.1489,-0.32245 -1.81523,-0.000117941 -3.7458,0.413147 -3.7458,2.2759 0,2.1148 1.58477,2.29831 2.0445,2.32084l0.139052 -0.000117941 -0.0928194 -1.40173c0.551255,-0.114756 1.21738,-0.160517 1.97716,-0.160517 1.37885,0 3.01103,0.160635 2.96491,0.160635l0 -0.000117941zm-17.4575 -2.92988c-0.0694671,0 -1.60057,-0.208401 -3.06221,-0.208401 -1.27612,0 -2.52889,0.162287 -2.52889,0.835021 0,0.254988 0,0.533446 0.881607,0.626148 1.43841,0.0465866 5.03442,0.162287 5.03442,3.38726 0.000117941,3.66548 -3.1088,4.03629 -5.08101,4.24563 -0.370688,0.0459969 -0.835021,0.0461148 -1.27565,0.0461148 -2.13437,-0.000117941 -5.10389,-0.25546 -5.10389,-0.25546l0 -4.38457c0,0 2.59835,0.417746 4.36157,0.417746 0.881725,0 1.55446,-0.116054 1.60069,-0.417746 0,-0.881253 -1.02066,-0.672734 -1.46164,-0.811668 -0.39404,-0.116172 -4.73285,-0.0695851 -4.73285,-3.92071 0,-2.90005 1.73998,-4.61667 7.4239,-4.61667 1.11383,-0.000117941 2.43607,0.0465866 3.94394,0.208873l0 4.84843zm-20.2555 4.24551c0.742319,0 2.6907,-0.139288 2.80723,-2.18096l0.0228805 -0.231872c-0.0461148,-1.64669 -1.15995,-2.04108 -1.99497,-2.11102l-0.162287 -0.000117941c-0.440627,0 -0.81214,0.0929373 -0.858373,0.0929373l0 4.43103 0.185521 0zm-4.43103 -8.79296c0.719321,-0.138698 2.11102,-0.394158 3.78154,-0.394158 3.66525,-0.000117941 8.39797,1.15995 8.39797,7.26161 0,5.56775 -4.89501,6.61176 -8.46779,6.61176 -2.06455,-0.000117941 -3.71171,-0.347807 -3.75795,-0.347807l0 -2.83058 0.0462328 -10.3008z"/>
  <g id="_161213744">
   <path id="_161213816" class="fil0" d="M24.6888 5.16663c1.92397,1.45893 3.20822,3.56099 3.63682,5.94669l0.554086 3.08309 -2.44987 -1.95204c-0.0883376,-0.0704106 -0.46622,-0.424823 -0.719085,-0.606805 -0.0923476,0.3872 -0.172429,0.774281 -0.293319,1.15853 -0.523657,1.66025 -1.39583,3.28418 -2.49138,4.63495 -1.24109,1.5291 -2.84567,2.62725 -4.71822,3.23512 -1.2109,0.392507 -2.48761,0.563639 -3.75842,0.545476 -0.727577,-0.00978908 -1.45386,-0.0812612 -2.17058,-0.206986 -1.03988,-0.182572 -2.06066,-0.479547 -3.03886,-0.875121 -2.25255,-0.90897 -4.34482,-2.36554 -5.8915,-4.24599 -0.544061,-0.661176 -1.02231,-1.37802 -1.41376,-2.14275 -0.30641,-0.6048 -0.655397,-1.39819 -0.789613,-1.93529l-1.14509 -4.57988 3.16447 3.50331c0.506792,0.561044 1.11171,0.796926 1.64645,0.142001 0.148841,-0.182808 0.136693,-0.620486 0.156861,-0.842215 0.47365,-5.70043 4.85609,-9.99701 10.6331,-10.0287 3.80654,0 7.22033,1.85816 9.08793,5.16663z"/>
  </g>
  <path class="fil0" d="M15.6025 1.17941c3.5966,0 6.60622,1.82136 8.17707,4.78226 1.794,1.28154 2.99369,3.18122 3.38525,5.36029 -0.535805,-0.426946 -1.00415,-1.03811 -1.76781,-0.96735 -0.479783,0.0441098 -0.65634,0.323276 -0.750693,0.677806 -0.125961,0.476717 -0.202858,0.929373 -0.353704,1.40916 -0.487449,1.54526 -1.30454,3.04063 -2.28239,4.24634 -1.14992,1.41682 -2.58939,2.34454 -4.16614,2.85641 -1.07821,0.349459 -2.22071,0.504551 -3.37865,0.488039 -0.658817,-0.00884556 -1.32271,-0.073595 -1.9827,-0.189295 -0.950839,-0.167004 -1.89354,-0.440155 -2.80121,-0.807187 -2.10725,-0.850353 -4.02638,-2.20443 -5.42233,-3.9016 -0.495115,-0.601734 -0.92442,-1.24663 -1.27293,-1.92751 -0.595837,-1.17622 -0.69703,-1.68726 -0.69703,-1.68726 1.33462,1.47756 2.73717,0.952372 3.43585,0.0965935 0.420341,-0.515991 0.390856,-1.18967 0.417864,-1.48747 0.425648,-5.12217 4.3263,-8.92104 9.45956,-8.94923z"/>
  <path class="fil2" d="M2.98626 13.2067c3.32133,6.48828 13.9698,9.70865 19.024,3.48126 0.977847,-1.20571 1.79494,-2.70108 2.28239,-4.24634 0.150846,-0.479783 0.227744,-0.93244 0.353704,-1.40916 0.0943526,-0.35453 0.27091,-0.633696 0.750693,-0.677806 0.763667,-0.0707645 1.23201,0.540405 1.76781,0.96735 -0.391563,-2.17907 -1.59126,-4.07875 -3.38525,-5.36029 -1.57085,-2.9609 -4.58047,-4.78226 -8.17707,-4.78226 -5.13325,0.0281878 -9.03391,3.82706 -9.45956,8.94923 -0.0270084,0.2978 0.00247676,0.971478 -0.417864,1.48747 -0.698681,0.855778 -2.10123,1.38097 -3.43585,-0.0965935 0,0 0.101193,0.511037 0.69703,1.68726l0 -0.000117941z"/>
  <path class="fil3" d="M17.1659 18.0418c-3.64036,0 -6.60327,-2.93979 -6.60327,-6.56588 0.000825585,-1.61437 0.59678,-3.0976 1.60022,-4.24599l-7.90368 7.90439c1.39571,1.69681 3.31508,3.05113 5.42233,3.9016 0.907672,0.366442 1.8499,0.639475 2.80121,0.807187 0.660232,0.115936 1.32424,0.180096 1.9827,0.189295 1.1583,0.0156861 2.30043,-0.138934 3.37865,-0.488039l0.664007 -0.664124 2.35386 -2.35374c-1.04496,0.896586 -2.36978,1.51542 -3.69603,1.51542l0 -0.000117941z"/>
  <path class="fil4" d="M10.5627 11.4758c0,3.62609 2.96291,6.56612 6.60327,6.56612 1.50351,-0.000117941 3.0049,-0.795157 4.09903,-1.88977 1.52922,-1.53087 2.32662,-2.99369 2.88353,-5.04527 0.117705,-0.433668 0.193187,-0.786783 0.663889,-1.06312 0.460913,-0.271264 1.18448,-0.221729 1.64244,0.138227 -0.298036,-0.80813 -1.00568,-2.2759 -2.48973,-3.45472 -1.55045,-1.23107 -3.55509,-1.85603 -5.95872,-1.85603 -0.349341,-0.000235882 -0.712244,0.0136811 -1.07904,0.0408075l-0.20734 0.0166296c-3.51888,0.336485 -6.15651,3.15091 -6.15733,6.54725l0 -0.000117941z"/>
  <path class="fil0" d="M17.4653 8.64435c0,0.737012 0.597606,1.33497 1.33544,1.33497 0.73713,-0.000117941 1.33474,-0.59796 1.33474,-1.33485 0,-0.737248 -0.597606,-1.33474 -1.33474,-1.33474 -0.737837,0 -1.33544,0.597488 -1.33544,1.33474l0 -0.000117941z"/>
 </g>
</svg>
